<svg width="12" height="12" viewBox="0 0 12 12" fill="none" xmlns="http://www.w3.org/2000/svg">
<g clip-path="url(#clip0_326_1347)">
<path d="M9.5 6.5V5.5C9.5 5.36458 9.45052 5.2474 9.35156 5.14844C9.2526 5.04948 9.13542 5 9 5H7V3C7 2.86458 6.95052 2.7474 6.85156 2.64844C6.7526 2.54948 6.63542 2.5 6.5 2.5H5.5C5.36458 2.5 5.2474 2.54948 5.14844 2.64844C5.04948 2.7474 5 2.86458 5 3V5H3C2.86458 5 2.7474 5.04948 2.64844 5.14844C2.54948 5.2474 2.5 5.36458 2.5 5.5V6.5C2.5 6.63542 2.54948 6.7526 2.64844 6.85156C2.7474 6.95052 2.86458 7 3 7H5V9C5 9.13542 5.04948 9.2526 5.14844 9.35156C5.2474 9.45052 5.36458 9.5 5.5 9.5H6.5C6.63542 9.5 6.7526 9.45052 6.85156 9.35156C6.95052 9.2526 7 9.13542 7 9V7H9C9.13542 7 9.2526 6.95052 9.35156 6.85156C9.45052 6.7526 9.5 6.63542 9.5 6.5ZM11.1953 2.98828C11.1953 2.98828 11.3294 3.2181 11.5977 3.67773C11.8659 4.13737 12 4.91146 12 6C12 7.08854 11.7318 8.09245 11.1953 9.01172C10.6589 9.93099 9.93099 10.6589 9.01172 11.1953C8.09245 11.7318 7.08854 12 6 12C4.91146 12 3.90755 11.7318 2.98828 11.1953C2.06901 10.6589 1.34115 9.93099 0.804688 9.01172C0.268229 8.09245 0 7.08854 0 6C0 4.91146 0.268229 3.90755 0.804688 2.98828C1.34115 2.06901 2.06901 1.34115 2.98828 0.804688C3.90755 0.268229 4.91146 0 6 0C7.08854 0 8.09245 0.268229 9.01172 0.804688C9.93099 1.34115 10.6589 2.06901 11.1953 2.98828Z" fill="#FF6600"/>
</g>
<defs>
<clipPath id="clip0_326_1347">
<rect width="12" height="12" fill="white" transform="matrix(1 0 0 -1 0 12)"/>
</clipPath>
</defs>
</svg>
