<svg width="19" height="28" viewBox="0 0 19 28" fill="none" xmlns="http://www.w3.org/2000/svg">
<path d="M13.79 8.28139C13.79 8.43615 13.7335 8.57008 13.6204 8.68317C13.5073 8.79627 13.3734 8.85282 13.2186 8.85282C13.0639 8.85282 12.9299 8.79627 12.8168 8.68317C12.7037 8.57008 12.6472 8.43615 12.6472 8.28139C12.6472 7.73377 12.3258 7.31115 11.6829 7.01353C11.04 6.71591 10.4091 6.5671 9.79004 6.5671C9.63528 6.5671 9.50135 6.51056 9.38826 6.39746C9.27516 6.28436 9.21862 6.15044 9.21862 5.99567C9.21862 5.84091 9.27516 5.70698 9.38826 5.59389C9.50135 5.48079 9.63528 5.42425 9.79004 5.42425C10.3853 5.42425 10.9775 5.51948 11.5668 5.70996C12.1561 5.90044 12.674 6.22186 13.1204 6.67425C13.5668 7.12663 13.79 7.66234 13.79 8.28139ZM16.6472 8.28139C16.6472 7.42425 16.4418 6.62663 16.0311 5.88853C15.6204 5.15044 15.0847 4.54627 14.424 4.07603C13.7633 3.60579 13.0311 3.23675 12.2275 2.96889C11.424 2.70103 10.6115 2.5671 9.79004 2.5671C8.96862 2.5671 8.15612 2.70103 7.35254 2.96889C6.54897 3.23675 5.81683 3.60579 5.15612 4.07603C4.4954 4.54627 3.95969 5.15044 3.54897 5.88853C3.13826 6.62663 2.9329 7.42425 2.9329 8.28139C2.9329 9.48377 3.33766 10.5552 4.14719 11.4957C4.26623 11.6266 4.44778 11.8231 4.69183 12.085C4.93588 12.3469 5.11742 12.5433 5.23647 12.6742C6.76028 14.4957 7.59957 16.2695 7.75433 17.9957H11.8258C11.9805 16.2695 12.8198 14.4957 14.3436 12.6742C14.4627 12.5433 14.6442 12.3469 14.8883 12.085C15.1323 11.8231 15.3139 11.6266 15.4329 11.4957C16.2424 10.5552 16.6472 9.48377 16.6472 8.28139ZM18.9329 8.28139C18.9329 10.1266 18.3198 11.7219 17.0936 13.0671C16.5579 13.6504 16.1144 14.1683 15.7633 14.6207C15.4121 15.0731 15.0579 15.6415 14.7008 16.326C14.3436 17.0106 14.1412 17.6504 14.0936 18.2457C14.6531 18.579 14.9329 19.0671 14.9329 19.71C14.9329 20.1504 14.7841 20.5314 14.4865 20.8528C14.7841 21.1742 14.9329 21.5552 14.9329 21.9957C14.9329 22.6147 14.665 23.0969 14.1293 23.4421C14.2841 23.7159 14.3615 23.9957 14.3615 24.2814C14.3615 24.829 14.174 25.2516 13.799 25.5492C13.424 25.8469 12.9627 25.9957 12.415 25.9957C12.1769 26.5195 11.8198 26.9362 11.3436 27.2457C10.8674 27.5552 10.3496 27.71 9.79004 27.71C9.23052 27.71 8.71266 27.5552 8.23647 27.2457C7.76028 26.9362 7.40314 26.5195 7.16504 25.9957C6.61742 25.9957 6.15612 25.8469 5.78112 25.5492C5.40612 25.2516 5.21862 24.829 5.21862 24.2814C5.21862 23.9957 5.296 23.7159 5.45076 23.4421C4.91504 23.0969 4.64719 22.6147 4.64719 21.9957C4.64719 21.5552 4.796 21.1742 5.09362 20.8528C4.796 20.5314 4.64719 20.1504 4.64719 19.71C4.64719 19.0671 4.92695 18.579 5.48647 18.2457C5.43885 17.6504 5.23647 17.0106 4.87933 16.326C4.52219 15.6415 4.16802 15.0731 3.81683 14.6207C3.46564 14.1683 3.02219 13.6504 2.48647 13.0671C1.26028 11.7219 0.647186 10.1266 0.647186 8.28139C0.647186 7.10282 0.912067 6.0046 1.44183 4.98675C1.97159 3.96889 2.66802 3.12365 3.53112 2.45103C4.39421 1.77841 5.3704 1.24865 6.45969 0.861746C7.54897 0.47484 8.65909 0.281387 9.79004 0.281387C10.921 0.281387 12.0311 0.47484 13.1204 0.861746C14.2097 1.24865 15.1859 1.77841 16.049 2.45103C16.9121 3.12365 17.6085 3.96889 18.1383 4.98675C18.668 6.0046 18.9329 7.10282 18.9329 8.28139Z" fill="white"/>
</svg>
