<svg width="22" height="16" viewBox="0 0 22 16" fill="none" xmlns="http://www.w3.org/2000/svg">
<path d="M21 2.55556V13.4444C21 13.857 20.8379 14.2527 20.5494 14.5444C20.2609 14.8361 19.8696 15 19.4615 15H2.53846C2.13044 15 1.73912 14.8361 1.4506 14.5444C1.16209 14.2527 1 13.857 1 13.4444V2.55556M21 2.55556C21 2.143 20.8379 1.74733 20.5494 1.45561C20.2609 1.16389 19.8696 1 19.4615 1H2.53846C2.13044 1 1.73912 1.16389 1.4506 1.45561C1.16209 1.74733 1 2.143 1 2.55556M21 2.55556L11.8754 8.94267C11.6182 9.12263 11.3128 9.21903 11 9.21903C10.6872 9.21903 10.3818 9.12263 10.1246 8.94267L1 2.55556" stroke="#464646" stroke-linecap="round" stroke-linejoin="round"/>
</svg>
