<svg width="13" height="12" viewBox="0 0 13 12" fill="none" xmlns="http://www.w3.org/2000/svg">
<path d="M1.22998 12C1.22998 12 0.22998 12 0.22998 11C0.22998 10 1.22998 7 6.22998 7C11.23 7 12.23 10 12.23 11C12.23 12 11.23 12 11.23 12H1.22998ZM6.22998 6C7.02563 6 7.78869 5.68393 8.3513 5.12132C8.91391 4.55871 9.22998 3.79565 9.22998 3C9.22998 2.20435 8.91391 1.44129 8.3513 0.87868C7.78869 0.316071 7.02563 0 6.22998 0C5.43433 0 4.67127 0.316071 4.10866 0.87868C3.54605 1.44129 3.22998 2.20435 3.22998 3C3.22998 3.79565 3.54605 4.55871 4.10866 5.12132C4.67127 5.68393 5.43433 6 6.22998 6Z" fill="#464646"/>
</svg>
