<svg width="10" height="13" viewBox="0 0 10 13" fill="none" xmlns="http://www.w3.org/2000/svg">
<path d="M1.39665 12.833C1.07581 12.833 0.801258 12.7189 0.57298 12.4906C0.344703 12.2623 0.230369 11.9876 0.22998 11.6663V5.83301C0.22998 5.51218 0.344314 5.23762 0.57298 5.00934C0.801647 4.78106 1.0762 4.66673 1.39665 4.66634H1.97998V3.49967C1.97998 2.69273 2.26445 2.00498 2.8334 1.43642C3.40234 0.867869 4.09009 0.583397 4.89665 0.583008C5.7032 0.582619 6.39115 0.867092 6.96048 1.43642C7.52981 2.00576 7.81409 2.69351 7.81331 3.49967V4.66634H8.39665C8.71748 4.66634 8.99223 4.78067 9.2209 5.00934C9.44956 5.23801 9.5637 5.51256 9.56331 5.83301V11.6663C9.56331 11.9872 9.44917 12.2619 9.2209 12.4906C8.99262 12.7193 8.71787 12.8334 8.39665 12.833H1.39665ZM3.14665 4.66634H6.64665V3.49967C6.64665 3.01356 6.47651 2.60037 6.13623 2.26009C5.79595 1.91981 5.38276 1.74967 4.89665 1.74967C4.41054 1.74967 3.99734 1.91981 3.65706 2.26009C3.31679 2.60037 3.14665 3.01356 3.14665 3.49967V4.66634Z" fill="#FF6600"/>
</svg>
