<svg width="30" height="29" viewBox="0 0 30 29" fill="none" xmlns="http://www.w3.org/2000/svg">
<g clip-path="url(#clip0_326_1455)">
<rect x="0.772705" width="29" height="29" rx="14.5" fill="#2AABEE"/>
<g clip-path="url(#clip1_326_1455)">
<g clip-path="url(#clip2_326_1455)">
<path d="M15.5 0C11.6552 0 7.96453 1.52862 5.24805 4.24691C2.52878 6.9663 1.00078 10.6543 1 14.5C1 18.3441 2.5293 22.0348 5.24805 24.7531C7.96453 27.4714 11.6552 29 15.5 29C19.3448 29 23.0355 27.4714 25.752 24.7531C28.4707 22.0348 30 18.3441 30 14.5C30 10.6559 28.4707 6.96521 25.752 4.24691C23.0355 1.52862 19.3448 0 15.5 0Z" fill="url(#paint0_linear_326_1455)"/>
<path d="M7.56352 14.347C11.7912 12.5055 14.6096 11.2915 16.0188 10.7048C20.0471 9.02985 20.8831 8.73895 21.4291 8.72909C21.5492 8.72716 21.8166 8.75684 21.991 8.89788C22.136 9.01682 22.1768 9.17768 22.1972 9.29063C22.2153 9.40345 22.2402 9.6606 22.2198 9.86134C22.0023 12.1541 21.0576 17.7181 20.5773 20.2862C20.3756 21.3728 19.9746 21.7371 19.5872 21.7726C18.7444 21.8501 18.1055 21.2162 17.2898 20.6817C16.0143 19.845 15.2938 19.3244 14.0545 18.5081C12.6227 17.5647 13.5516 17.0461 14.3672 16.1987C14.5802 15.9769 18.2913 12.6023 18.3615 12.2962C18.3705 12.2579 18.3796 12.1152 18.2935 12.04C18.2097 11.9645 18.0851 11.9903 17.9945 12.0107C17.8653 12.0397 15.8285 13.3873 11.8773 16.0533C11.2995 16.4507 10.7762 16.6444 10.3049 16.6342C9.78836 16.6231 8.79149 16.3415 8.05063 16.1009C7.14438 15.8057 6.42164 15.6496 6.48508 15.1482C6.5168 14.8872 6.87703 14.6201 7.56352 14.347Z" fill="white"/>
</g>
</g>
</g>
<defs>
<linearGradient id="paint0_linear_326_1455" x1="1451" y1="0" x2="1451" y2="2900" gradientUnits="userSpaceOnUse">
<stop stop-color="#2AABEE"/>
<stop offset="1" stop-color="#229ED9"/>
</linearGradient>
<clipPath id="clip0_326_1455">
<rect x="0.772705" width="29" height="29" rx="14.5" fill="white"/>
</clipPath>
<clipPath id="clip1_326_1455">
<rect width="29" height="29" fill="white" transform="translate(0.772705)"/>
</clipPath>
<clipPath id="clip2_326_1455">
<rect width="29" height="29" fill="white" transform="translate(1)"/>
</clipPath>
</defs>
</svg>
