<svg width="30" height="29" viewBox="0 0 30 29" fill="none" xmlns="http://www.w3.org/2000/svg">
<g clip-path="url(#clip0_326_1449)">
<rect x="0.88623" width="29" height="29" rx="14.5" fill="#0077FF"/>
<path d="M22.6344 11.856C22.8345 11.5561 22.9073 11.1889 22.8366 10.8353C22.766 10.4817 22.5578 10.1707 22.2579 9.97056C21.9579 9.77047 21.5907 9.69773 21.2372 9.76835C20.8836 9.83896 20.5725 10.0471 20.3724 10.3471C19.8912 10.986 19.3869 11.5977 18.7969 12.1415C18.1131 12.7722 17.4212 13.2453 16.747 13.5253L16.7361 10.9425C16.6971 10.6118 16.5382 10.307 16.2894 10.0857C16.0405 9.86447 15.7192 9.74223 15.3862 9.74219C14.6494 9.78433 14.0269 10.3281 14.0269 11.1016V17.0461C11.3788 16.312 9.94873 13.7428 9.94873 11.1016C9.94873 10.741 9.80551 10.3953 9.55058 10.1403C9.29565 9.88541 8.94988 9.74219 8.58936 9.74219C8.22883 9.74219 7.88306 9.88541 7.62813 10.1403C7.3732 10.3953 7.22998 10.741 7.22998 11.1016C7.22998 16.0388 10.642 19.9375 15.3862 19.9375C15.7468 19.9375 16.0925 19.7943 16.3475 19.5393C16.6024 19.2844 16.7456 18.9387 16.7456 18.5781V16.4534C18.5563 16.5975 20.3126 17.8767 20.9678 19.1858C21.0442 19.351 21.1529 19.4993 21.2877 19.6217C21.4224 19.7442 21.5803 19.8383 21.7521 19.8985C21.9239 19.9587 22.1061 19.9839 22.2878 19.9724C22.4695 19.9609 22.647 19.913 22.8098 19.8316C22.9727 19.7501 23.1175 19.6369 23.2357 19.4984C23.3539 19.36 23.4431 19.1992 23.498 19.0256C23.5529 18.852 23.5724 18.6692 23.5553 18.4879C23.5381 18.3067 23.4848 18.1307 23.3984 17.9705C22.7486 16.6696 21.536 15.4529 20.0434 14.659C20.2446 14.4946 20.4445 14.3206 20.6416 14.1398C21.3905 13.4568 22.0591 12.6906 22.6344 11.856Z" fill="white"/>
</g>
<defs>
<clipPath id="clip0_326_1449">
<rect x="0.88623" width="29" height="29" rx="14.5" fill="white"/>
</clipPath>
</defs>
</svg>
